<?xml version="1.0" encoding="UTF-8" standalone="no"?>
<!-- Created with Inkscape (http://www.inkscape.org/) -->

<svg
   version="1.1"
   id="svg1"
   width="256"
   height="256"
   viewBox="0 0 256 256"
   sodipodi:docname="raptor-circle-logo.svg"
   inkscape:version="1.4 (e7c3feb100, 2024-10-09)"
   inkscape:export-filename="src/images/raptor-circle-icon.png"
   inkscape:export-xdpi="96"
   inkscape:export-ydpi="96"
   xmlns:inkscape="http://www.inkscape.org/namespaces/inkscape"
   xmlns:sodipodi="http://sodipodi.sourceforge.net/DTD/sodipodi-0.dtd"
   xmlns:xlink="http://www.w3.org/1999/xlink"
   xmlns="http://www.w3.org/2000/svg"
   xmlns:svg="http://www.w3.org/2000/svg"
   xmlns:rdf="http://www.w3.org/1999/02/22-rdf-syntax-ns#"
   xmlns:cc="http://creativecommons.org/ns#">
  <defs
     id="defs1">
    <linearGradient
       id="linearGradient4"
       inkscape:collect="always">
      <stop
         style="stop-color:#e3d7a2;stop-opacity:1;"
         offset="0"
         id="stop5" />
      <stop
         style="stop-color:#f6f6f6;stop-opacity:1;"
         offset="1"
         id="stop6" />
    </linearGradient>
    <filter
       id="mask-powermask-path-effect51_inverse"
       inkscape:label="filtermask-powermask-path-effect51"
       style="color-interpolation-filters:sRGB"
       height="100"
       width="100"
       x="-50"
       y="-50">
      <feColorMatrix
         id="mask-powermask-path-effect51_primitive1"
         values="1"
         type="saturate"
         result="fbSourceGraphic" />
      <feColorMatrix
         id="mask-powermask-path-effect51_primitive2"
         values="-1 0 0 0 1 0 -1 0 0 1 0 0 -1 0 1 0 0 0 1 0 "
         in="fbSourceGraphic" />
    </filter>
    <filter
       id="mask-powermask-path-effect54_inverse"
       inkscape:label="filtermask-powermask-path-effect54"
       style="color-interpolation-filters:sRGB"
       height="100"
       width="100"
       x="-50"
       y="-50">
      <feColorMatrix
         id="mask-powermask-path-effect54_primitive1"
         values="1"
         type="saturate"
         result="fbSourceGraphic" />
      <feColorMatrix
         id="mask-powermask-path-effect54_primitive2"
         values="-1 0 0 0 1 0 -1 0 0 1 0 0 -1 0 1 0 0 0 1 0 "
         in="fbSourceGraphic" />
    </filter>
    <filter
       id="mask-powermask-path-effect57_inverse"
       inkscape:label="filtermask-powermask-path-effect57"
       style="color-interpolation-filters:sRGB"
       height="100"
       width="100"
       x="-50"
       y="-50">
      <feColorMatrix
         id="mask-powermask-path-effect57_primitive1"
         values="1"
         type="saturate"
         result="fbSourceGraphic" />
      <feColorMatrix
         id="mask-powermask-path-effect57_primitive2"
         values="-1 0 0 0 1 0 -1 0 0 1 0 0 -1 0 1 0 0 0 1 0 "
         in="fbSourceGraphic" />
    </filter>
    <filter
       id="mask-powermask-path-effect63_inverse"
       inkscape:label="filtermask-powermask-path-effect63"
       style="color-interpolation-filters:sRGB"
       height="100"
       width="100"
       x="-50"
       y="-50">
      <feColorMatrix
         id="mask-powermask-path-effect63_primitive1"
         values="1"
         type="saturate"
         result="fbSourceGraphic" />
      <feColorMatrix
         id="mask-powermask-path-effect63_primitive2"
         values="-1 0 0 0 1 0 -1 0 0 1 0 0 -1 0 1 0 0 0 1 0 "
         in="fbSourceGraphic" />
    </filter>
    <filter
       id="mask-powermask-path-effect66_inverse"
       inkscape:label="filtermask-powermask-path-effect66"
       style="color-interpolation-filters:sRGB"
       height="100"
       width="100"
       x="-50"
       y="-50">
      <feColorMatrix
         id="mask-powermask-path-effect66_primitive1"
         values="1"
         type="saturate"
         result="fbSourceGraphic" />
      <feColorMatrix
         id="mask-powermask-path-effect66_primitive2"
         values="-1 0 0 0 1 0 -1 0 0 1 0 0 -1 0 1 0 0 0 1 0 "
         in="fbSourceGraphic" />
    </filter>
    <filter
       id="mask-powermask-path-effect93_inverse"
       inkscape:label="filtermask-powermask-path-effect93"
       style="color-interpolation-filters:sRGB"
       height="100"
       width="100"
       x="-50"
       y="-50">
      <feColorMatrix
         id="mask-powermask-path-effect93_primitive1"
         values="1"
         type="saturate"
         result="fbSourceGraphic" />
      <feColorMatrix
         id="mask-powermask-path-effect93_primitive2"
         values="-1 0 0 0 1 0 -1 0 0 1 0 0 -1 0 1 0 0 0 1 0 "
         in="fbSourceGraphic" />
    </filter>
    <filter
       id="mask-powermask-path-effect96_inverse"
       inkscape:label="filtermask-powermask-path-effect96"
       style="color-interpolation-filters:sRGB"
       height="100"
       width="100"
       x="-50"
       y="-50">
      <feColorMatrix
         id="mask-powermask-path-effect96_primitive1"
         values="1"
         type="saturate"
         result="fbSourceGraphic" />
      <feColorMatrix
         id="mask-powermask-path-effect96_primitive2"
         values="-1 0 0 0 1 0 -1 0 0 1 0 0 -1 0 1 0 0 0 1 0 "
         in="fbSourceGraphic" />
    </filter>
    <linearGradient
       inkscape:collect="always"
       xlink:href="#linearGradient4"
       id="linearGradient6"
       x1="130.43382"
       y1="4.4085083"
       x2="130.43382"
       y2="252.40851"
       gradientUnits="userSpaceOnUse"
       gradientTransform="translate(-0.18647481,-0.18652589)" />
  </defs>
  <sodipodi:namedview
     id="namedview1"
     pagecolor="#ffffff"
     bordercolor="#666666"
     borderopacity="1.0"
     inkscape:showpageshadow="true"
     inkscape:pageopacity="0.0"
     inkscape:pagecheckerboard="false"
     inkscape:deskcolor="#d1d1d1"
     inkscape:zoom="3.0530587"
     inkscape:cx="113.82028"
     inkscape:cy="121.84502"
     inkscape:window-width="5120"
     inkscape:window-height="1362"
     inkscape:window-x="1275"
     inkscape:window-y="1440"
     inkscape:window-maximized="1"
     inkscape:current-layer="g1"
     labelstyle="default"
     borderlayer="true"
     showborder="true"
     showguides="true" />
  <g
     inkscape:groupmode="layer"
     inkscape:label="Image"
     id="g1"
     transform="translate(-2.2473342,-0.22201102)">
    <circle
       style="fill:url(#linearGradient6);stroke:none;stroke-width:7.74808;stroke-linecap:round;stroke-linejoin:bevel"
       id="path161"
       cx="130.24733"
       cy="128.22202"
       r="124" />
    <g
       id="g19"
       transform="matrix(2.9055557,0,0,2.9055557,42.740225,85.373803)"
       style="display:inline">
      <path
         style="fill:#eff0e9"
         d="m 23.005161,48.896352 c -3.094206,-3.628462 -3.097797,-3.628421 -6.278884,0.0724 -2.026688,2.357812 -1.77777,2.230171 -2.43259,1.247399 -0.285347,-0.428257 -0.786003,-1.160614 -1.112567,-1.62746 L 12.587365,47.73988 13.102658,45.901191 C 15.067815,38.889035 15.598897,34.99405 15.748016,26.5 c 0.102097,-5.81565 0.168699,-6.573524 0.768954,-8.75 0.485356,-1.759864 1.388966,-3.72285 2.459856,-5.34375 L 19.410395,11.75 h 1.515503 c 2.08468,0 1.984554,0.313018 1.984554,-0.978787 0,-1.4296846 -0.935592,-1.1835291 -3.515666,-1.7314198 C 14.808741,8.0659254 13.453098,7.2377868 12.190666,4.214628 L 11.9932,3.741756 24.15285,3.777466 36.3125,3.813176 37.125,4.0907783 c 1.887255,0.6448076 3.487769,2.0215929 4.316994,3.7135396 0.723227,1.4756716 0.714764,1.5897946 -0.149184,2.0115469 -2.042883,0.9972712 -2.956019,2.4895962 -3.401571,5.5591342 -0.320018,2.204696 -0.746543,3.968225 -1.821256,7.530244 -1.414055,4.686728 -1.3031,4.842662 3.446705,4.843932 l 3.079188,8.24e-4 0.0874,0.84375 c 0.389034,3.755796 1.652452,8.427159 3.693472,13.65625 0.603777,1.546875 1.27612,3.387431 1.494096,4.090124 l 0.396319,1.277624 -1.35233,1.748509 c -1.628971,2.106195 -1.129816,2.179037 -3.405928,-0.497027 -3.055817,-3.592777 -3.097991,-3.592738 -6.172815,0.0058 -1.028036,1.203125 -1.90898,2.231951 -1.957653,2.286281 -0.04867,0.05433 -0.99936,-0.966188 -2.11264,-2.267815 -3.096206,-3.620031 -3.095129,-3.620027 -6.181557,-0.01847 -1.031041,1.203125 -1.915117,2.234271 -1.964614,2.291436 -0.0495,0.05716 -1.001005,-0.964373 -2.114462,-2.270084 z"
         id="path22"
         sodipodi:nodetypes="cssscsssscsssscccsssssscssscssssssscc" />
      <path
         style="fill:#fadf47;fill-opacity:1"
         d="m 39.921704,22.489482 0.513453,-1.760518 5.751171,0.05566 c 8.07625,0.07816 8.306433,0.151789 6.310573,2.018683 C 51.066702,24.141086 50.45051,24.25 44.312065,24.25 H 39.408252 Z M 57.25,18.853283 C 54.492974,17.453492 53.132435,17.25 46.530501,17.25 H 41.21875 l 0.07043,-0.352133 c 0.03873,-0.193674 0.136703,-0.854611 0.217708,-1.46875 0.211054,-1.600098 0.650422,-2.252746 1.715747,-2.548616 0.610213,-0.169473 9.767158,-0.173378 10.657411,-0.0045 2.668682,0.506106 4.488878,2.904321 4.344717,5.724421 l -0.03726,0.728891 z"
         id="path21" />
      <path
         style="fill:#3e44e5;fill-opacity:1"
         d="m 7.125,60.218485 c 0,-0.01733 0.3383899,-0.678273 0.7519776,-1.46875 0.9117096,-1.742522 2.1834834,-4.441875 2.7530984,-5.843481 0.515012,-1.267248 0.344456,-1.330802 1.691369,0.630261 2.131763,3.103782 2.513579,3.069584 5.567402,-0.498651 1.047498,-1.223948 1.939625,-2.240308 1.982504,-2.258579 0.04288,-0.01827 0.96868,1.014271 2.057336,2.294536 3.063696,3.602921 3.098311,3.602605 6.216501,-0.05675 1.054521,-1.237537 1.948952,-2.253891 1.987623,-2.258565 0.03867,-0.0047 0.966796,1.040805 2.0625,2.323284 3.069067,3.592226 3.141637,3.592068 6.179689,-0.0135 2.324734,-2.758997 1.71072,-2.766018 4.116754,0.04707 2.963417,3.464776 3.267779,3.495911 5.527268,0.565415 1.233927,-1.60037 1.297422,-1.661533 1.386136,-1.335235 0.25283,0.929932 0.844842,6.218819 0.844842,7.547613 v 0.356848 H 28.6875 C 16.828125,60.250004 7.125,60.23582 7.125,60.218485 Z"
         id="path20" />
      <path
         style="display:none;fill:#010101"
         d="M 3.1401869,63.550808 C 2.7319155,63.265179 1.9431352,62.118649 3.4504008,59.537206 9.4793247,49.211671 12.247776,38.634556 12.249492,25.919494 c 8.73e-4,-6.474537 0.539309,-9.317699 2.486653,-13.13054 l 0.714284,-1.398547 -0.920393,-0.335686 C 9.7801537,9.3223427 6.2503841,0.29175645 9.8475312,0.22507523 c 1.0011918,-0.0185593 26.9193458,0 27.7891428,0 4.03291,0 6.751153,4.31825477 7.718322,8.04422767 l 0.23834,0.9181971 4.484582,0.070012 c 4.230959,0.066053 4.534067,0.086191 5.359582,0.3560832 2.924764,0.9562168 4.999775,3.0319078 5.946956,5.9489048 0.403504,1.242657 0.520074,7.478636 0.152884,8.178614 -0.718268,1.36924 -1.817883,1.314155 -3.53734,-0.177204 -1.130007,-0.980103 -1.012145,-0.972646 -1.504078,-0.09516 -1.527928,2.725444 -4.241259,4.128554 -8.214672,4.247948 -1.647893,0.04952 -2.15625,0.102943 -2.15625,0.226613 0,2.075837 1.686922,8.358053 3.438897,12.806689 2.75637,6.999011 4.042484,13.138079 4.102474,19.582451 0.02298,2.469131 -0.577675,3.297385 -0.859458,3.405187 -0.0828,0.03168 -0.0773,0.04342 -0.0773,0.04342 H 3.7414919 c 0,0 -0.4254419,-0.107215 -0.601305,-0.23025 z M 50.25,59.893152 c 0,-1.328794 -0.592012,-6.617681 -0.844842,-7.547613 -0.08871,-0.326298 -0.152209,-0.265135 -1.386136,1.335235 -2.259489,2.930496 -2.563851,2.899361 -5.527268,-0.565415 -2.406034,-2.813093 -1.79202,-2.806072 -4.116754,-0.04707 -3.038052,3.605565 -3.110622,3.605723 -6.179689,0.0135 -1.095704,-1.282479 -2.023829,-2.327957 -2.0625,-2.323284 -0.03867,0.0047 -0.933102,1.021028 -1.987623,2.258565 -3.11819,3.65936 -3.152805,3.659676 -6.216501,0.05675 -1.088656,-1.280265 -2.014458,-2.312806 -2.057336,-2.294536 -0.04288,0.01827 -0.935006,1.034631 -1.982504,2.258579 -3.053823,3.568235 -3.435639,3.602433 -5.567402,0.498651 C 10.974532,51.575448 11.145088,51.639002 10.630076,52.90625 10.060461,54.307856 8.7886872,57.007209 7.8769776,58.749731 7.4633899,59.540208 7.125,60.201146 7.125,60.218481 c 0,0.01734 9.703125,0.03152 21.5625,0.03152 H 50.25 Z M 27.066415,48.942748 c 3.08425,-3.609516 3.091758,-3.60948 6.205945,0.02932 1.042816,1.218487 1.937576,2.232535 1.988355,2.253439 0.05078,0.0209 0.977862,-1.003388 2.060184,-2.276203 3.080022,-3.622121 3.072633,-3.622182 6.231996,0.05145 l 1.934361,2.249233 1.381372,-1.769783 C 47.628383,48.506827 48.25,47.61855 48.25,47.506257 48.25,47.180797 47.225495,44.235216 46.378341,42.125 44.478822,37.393399 43.389111,33.318686 42.692787,28.34375 L 42.609677,27.75 h -2.933856 c -4.885221,0 -4.967887,-0.11854 -3.500131,-5.019102 1.069584,-3.571138 1.483785,-5.296803 1.821286,-7.587928 0.434647,-2.950605 1.289659,-4.301116 3.343671,-5.2814055 C 42.037479,9.5289996 42.125696,9.4481741 42.052118,9.2097134 41.270394,6.6762011 39.727566,5.0244324 37.260896,4.0801799 36.566879,3.8145067 36.485443,3.8126115 24.271705,3.7778829 l -12.290794,-0.034948 0.08619,0.2847824 c 0.881224,2.9116239 3.264197,4.2221427 7.67791,4.2224766 3.322739,2.517e-4 3.584831,1.4749151 3.584831,2.9494041 0,1.299685 -0.372216,0.549928 -2.481434,0.550208 L 19.384315,11.75 18.871167,12.505644 c -1.185507,1.745737 -2.229942,4.260871 -2.760672,6.648054 -0.227076,1.021369 -0.270135,1.811096 -0.363068,6.658802 -0.171873,8.965519 -1.181635,16.008706 -3.052943,21.29456 -0.106033,0.299508 -0.15578,0.608883 -0.110549,0.6875 0.8897,1.546434 2.342805,3.333051 2.540298,3.123339 0.119337,-0.126719 1.015107,-1.171236 1.990601,-2.321148 2.731921,-3.220385 2.809238,-3.216344 5.821688,0.304266 2.394865,2.798847 1.779314,2.792627 4.129893,0.04173 z m 5.84323,-33.287382 c -1.752593,-0.573191 -1.724314,-4.817983 -0.47458,-5.7347395 1.405909,-1.0313198 2.762074,0.1518115 2.762074,2.4434365 0,2.219433 -0.68072,3.816804 -2.287494,3.291303 z M 50.875,23.90714 c 1.364599,-0.556478 3.200307,-2.402651 2.679074,-2.694348 -0.641602,-0.359058 -2.226997,-0.454157 -7.642531,-0.458431 L 40.385586,20.75 40.120663,21.65625 c -0.145708,0.498438 -0.37309,1.263738 -0.505293,1.700667 -0.132204,0.436929 -0.24037,0.81887 -0.24037,0.848758 0,0.243088 10.863371,-0.03892 11.5,-0.298535 z m 7.375,-5.581473 c 0,-2.431363 -1.244416,-4.375255 -3.343489,-5.222838 C 53.80399,12.657643 43.679793,12.580151 42.791637,13.010099 41.867658,13.45739 41.25,15.051591 41.25,16.989126 c 0,0.233308 0.173397,0.242437 5.59375,0.294503 6.570794,0.06312 8.725157,0.42866 10.84375,1.839924 0.549181,0.365827 0.5625,0.346935 0.5625,-0.797886 z"
         id="path19"
         sodipodi:nodetypes="sssscsssscsssssssssssscssssssscssssssssscsssssscsssscssssssscsssscsssscssssssssssscsssssssssss" />
      <path
         id="path157"
         style="display:inline;fill:#010101"
         d="M 9.8477387,0.22482976 C 6.2505916,0.29151098 9.7804267,9.3223237 14.530309,11.054702 l 0.920247,0.33543 -0.714553,1.398855 c -1.947344,3.812841 -2.485608,6.656288 -2.486481,13.130825 -0.0017,12.604916 -2.7271649,23.108144 -8.6478991,33.348693 a 42.718902,42.718902 0 0 0 7.3075251,4.512503 h 36.818608 a 42.718902,42.718902 0 0 0 5.938919,-3.448405 c -2e-6,-2.25e-4 2e-6,-4.47e-4 0,-6.72e-4 -0.06007,-6.444126 -1.346185,-12.583196 -4.102459,-19.581963 -1.751975,-4.448636 -3.438993,-10.730986 -3.438993,-12.806823 0,-0.12367 0.507864,-0.177012 2.155757,-0.226532 3.973413,-0.119394 6.687072,-1.522211 8.215,-4.247655 0.491933,-0.877486 0.373712,-0.885322 1.503719,0.09478 1.719457,1.491359 2.81954,1.546701 3.537808,0.177461 0.36719,-0.699978 0.250241,-6.936044 -0.153263,-8.178701 C 60.437063,12.645502 58.362023,10.569714 55.437259,9.6134974 54.611744,9.3436052 54.308739,9.3232825 50.07778,9.2572295 L 45.59351,9.1873204 45.354877,8.2690902 C 44.387708,4.5431173 41.669546,0.22482976 37.636636,0.22482976 c -0.869797,0 -26.787705,-0.0185593 -27.7888973,0 z M 11.980641,3.7431434 24.271884,3.778098 c 12.213738,0.034729 12.294973,0.036146 12.98899,0.3018194 2.46667,0.9442525 4.009743,2.5960734 4.791467,5.1295857 0.07358,0.2384607 -0.01503,0.3194726 -0.711864,0.6520375 -2.054012,0.9802894 -2.908893,2.3308984 -3.34354,5.2815034 -0.337501,2.291125 -0.751416,4.016696 -1.821,7.587834 -1.467756,4.900562 -1.385057,5.019345 3.500164,5.019345 h 2.933497 l 0.08335,0.593556 c 0.696324,4.974936 1.786173,9.049917 3.685692,13.781518 0.847154,2.110216 1.871415,5.05553 1.871415,5.38099 0,0.112293 -0.621623,1.000212 -1.381378,1.973589 l -1.381379,1.769912 -1.934602,-2.249193 c -3.159363,-3.673632 -3.151977,-3.673208 -6.231999,-0.05109 -1.082322,1.272815 -2.009524,2.296981 -2.060304,2.276081 -0.05078,-0.0209 -0.94489,-1.034739 -1.987706,-2.253226 -3.114187,-3.6388 -3.122206,-3.639093 -6.206456,-0.02958 -2.350579,2.750896 -1.735154,2.75717 -4.130019,-0.04168 -3.01245,-3.52061 -3.089362,-3.524893 -5.821283,-0.304508 -0.975494,1.149912 -1.871058,2.1944 -1.990395,2.321119 -0.197493,0.209712 -1.65123,-1.576624 -2.54093,-3.123058 -0.04523,-0.07862 0.0049,-0.388156 0.110914,-0.687664 1.871308,-5.285854 2.881276,-12.329219 3.053149,-21.294738 0.09293,-4.847706 0.135914,-5.63748 0.36299,-6.658849 0.53073,-2.387183 1.575233,-4.902357 2.76074,-6.648094 l 0.512891,-0.755557 h 1.46406 c 2.109218,-2.8e-4 2.481775,0.749823 2.481775,-0.549862 0,-1.4744891 -0.262122,-2.9493778 -3.584861,-2.9496295 -4.413713,-3.339e-4 -6.796686,-1.3111591 -7.67791,-4.222783 z m 21.478921,5.8017893 c -0.324846,-0.0017 -0.672961,0.1179318 -1.024438,0.3757618 -1.249734,0.9167565 -1.278017,5.1613775 0.474576,5.7345685 1.606774,0.525501 2.287509,-1.071675 2.287509,-3.291108 0,-1.718719 -0.763107,-2.8141348 -1.737647,-2.8192223 z m 15.309437,3.1835563 c 2.779884,0.02128 5.585959,0.151824 6.137219,0.374417 2.099073,0.847583 3.343541,2.791659 3.343541,5.223022 0,1.144821 -0.01278,1.163733 -0.561962,0.797906 -2.118593,-1.411264 -4.273195,-1.777373 -10.843989,-1.840493 -5.420353,-0.05207 -5.594078,-0.06112 -5.594078,-0.294426 0,-1.937535 0.618056,-3.531482 1.542035,-3.978773 0.444078,-0.214974 3.19735,-0.302931 5.977234,-0.281653 z m -8.383723,8.021405 5.526186,0.0047 c 5.415534,0.0043 7.000681,0.09939 7.642283,0.458443 0.521233,0.291697 -1.314133,2.137714 -2.678732,2.694192 -0.636629,0.259615 -11.500059,0.541546 -11.500059,0.298458 0,-0.02989 0.108445,-0.412064 0.240649,-0.848993 0.132203,-0.436929 0.359117,-1.202237 0.504825,-1.700675 z M 30.132827,50.758408 c 0.03867,-0.0047 0.966616,1.040656 2.06232,2.323135 3.069067,3.592223 3.141516,3.592121 6.179568,-0.01344 2.324734,-2.759002 1.711213,-2.766039 4.117247,0.04705 2.963417,3.464776 3.267369,3.49582 5.526858,0.565324 1.233927,-1.60037 1.297374,-1.661295 1.386084,-1.334997 0.25283,0.929932 0.84496,6.218708 0.84496,7.547502 v 0.35694 H 28.687589 c -11.859375,0 -21.5622748,-0.01425 -21.5622748,-0.03159 0,-0.01733 0.3379359,-0.678288 0.7515236,-1.468765 0.9117096,-1.742522 2.1837312,-4.44186 2.7533462,-5.843466 0.515012,-1.267248 0.344351,-1.330539 1.691264,0.630527 2.131763,3.103782 2.513367,3.06946 5.56719,-0.498775 1.047498,-1.223948 1.940121,-2.240334 1.983001,-2.258604 0.04288,-0.01827 0.968287,1.014638 2.056943,2.294903 3.063696,3.602926 3.098349,3.602223 6.216539,-0.05714 1.054521,-1.237537 1.949036,-2.253904 1.987706,-2.258604 z" />
    </g>
  </g>
  <metadata
     id="metadata22">
    <rdf:RDF>
      <cc:License
         rdf:about="http://creativecommons.org/licenses/by/4.0/">
        <cc:permits
           rdf:resource="http://creativecommons.org/ns#Reproduction" />
        <cc:permits
           rdf:resource="http://creativecommons.org/ns#Distribution" />
        <cc:requires
           rdf:resource="http://creativecommons.org/ns#Notice" />
        <cc:requires
           rdf:resource="http://creativecommons.org/ns#Attribution" />
        <cc:permits
           rdf:resource="http://creativecommons.org/ns#DerivativeWorks" />
      </cc:License>
      <cc:Work
         rdf:about="">
        <cc:license
           rdf:resource="http://creativecommons.org/licenses/by/4.0/" />
      </cc:Work>
    </rdf:RDF>
  </metadata>
</svg>
