<?xml version="1.0" encoding="UTF-8" standalone="no"?>
<svg
   version="1.1"
   xlink="http://www.w3.org/1999/xlink"
   width="1280"
   height="640"
   viewBox="10 10 1280 640"
   id="svg6"
   sodipodi:docname="raptor-repo-card.svg"
   inkscape:version="1.4 (e7c3feb100, 2024-10-09)"
   inkscape:export-filename="../../repo-logo.png"
   inkscape:export-xdpi="96"
   inkscape:export-ydpi="96"
   xmlns:inkscape="http://www.inkscape.org/namespaces/inkscape"
   xmlns:sodipodi="http://sodipodi.sourceforge.net/DTD/sodipodi-0.dtd"
   xmlns:xlink="http://www.w3.org/1999/xlink"
   xmlns="http://www.w3.org/2000/svg"
   xmlns:svg="http://www.w3.org/2000/svg">
  <defs
     id="defs10">
    <linearGradient
       inkscape:collect="always"
       id="linearGradient3045">
      <stop
         style="stop-color:#060667;stop-opacity:1;"
         offset="0"
         id="stop3041" />
      <stop
         style="stop-color:#2020e2;stop-opacity:1;"
         offset="0.78752887"
         id="stop3043" />
    </linearGradient>
    <linearGradient
       inkscape:collect="always"
       id="linearGradient2984">
      <stop
         style="stop-color:#f8ffff;stop-opacity:1;"
         offset="0"
         id="stop2980" />
      <stop
         style="stop-color:#000000;stop-opacity:1;"
         offset="1"
         id="stop2982" />
    </linearGradient>
    <linearGradient
       inkscape:collect="always"
       id="linearGradient2900">
      <stop
         style="stop-color:#ffffff;stop-opacity:1;"
         offset="0"
         id="stop2896" />
      <stop
         style="stop-color:#ffffff;stop-opacity:0;"
         offset="1"
         id="stop2898" />
    </linearGradient>
    <linearGradient
       id="linearGradient2884"
       inkscape:swatch="solid">
      <stop
         style="stop-color:#000000;stop-opacity:1;"
         offset="0"
         id="stop2882" />
    </linearGradient>
    <rect
       x="145.394"
       y="28.54594"
       width="231.6011"
       height="70.066315"
       id="rect289" />
    <linearGradient
       inkscape:collect="always"
       xlink:href="#linearGradient2900"
       id="linearGradient2902"
       x1="150.29652"
       y1="58.880344"
       x2="329.76849"
       y2="58.880344"
       gradientUnits="userSpaceOnUse" />
    <radialGradient
       inkscape:collect="always"
       xlink:href="#linearGradient2984"
       id="radialGradient2968"
       cx="74"
       cy="74"
       fx="74"
       fy="74"
       r="63.999989"
       gradientUnits="userSpaceOnUse" />
    <radialGradient
       inkscape:collect="always"
       xlink:href="#linearGradient3045"
       id="radialGradient3049"
       cx="74"
       cy="74"
       fx="74"
       fy="74"
       r="63.999989"
       gradientUnits="userSpaceOnUse"
       gradientTransform="translate(409.45538,256)" />
    <radialGradient
       inkscape:collect="always"
       xlink:href="#linearGradient2984"
       id="radialGradient1"
       gradientUnits="userSpaceOnUse"
       cx="74"
       cy="74"
       fx="74"
       fy="74"
       r="63.999989"
       gradientTransform="matrix(1.3005258,0,0,1.3005258,76.677177,165.11568)" />
    <radialGradient
       inkscape:collect="always"
       xlink:href="#linearGradient2984"
       id="radialGradient2"
       gradientUnits="userSpaceOnUse"
       cx="74"
       cy="74"
       fx="74"
       fy="74"
       r="63.999989"
       gradientTransform="matrix(1.3005258,0,0,1.3005258,76.677177,165.11568)" />
    <radialGradient
       inkscape:collect="always"
       xlink:href="#linearGradient2984"
       id="radialGradient3"
       gradientUnits="userSpaceOnUse"
       cx="74"
       cy="74"
       fx="74"
       fy="74"
       r="63.999989"
       gradientTransform="matrix(1.3005258,0,0,1.3005258,76.677177,165.11568)" />
    <radialGradient
       inkscape:collect="always"
       xlink:href="#linearGradient2984"
       id="radialGradient4"
       gradientUnits="userSpaceOnUse"
       cx="74"
       cy="74"
       fx="74"
       fy="74"
       r="63.999989"
       gradientTransform="matrix(1.3005258,0,0,1.3005258,76.677177,165.11568)" />
    <radialGradient
       inkscape:collect="always"
       xlink:href="#linearGradient2984"
       id="radialGradient5"
       gradientUnits="userSpaceOnUse"
       cx="74"
       cy="74"
       fx="74"
       fy="74"
       r="63.999989" />
    <radialGradient
       inkscape:collect="always"
       xlink:href="#linearGradient2984"
       id="radialGradient6"
       gradientUnits="userSpaceOnUse"
       cx="74"
       cy="74"
       fx="74"
       fy="74"
       r="63.999989"
       gradientTransform="translate(409.45538,256)" />
  </defs>
  <sodipodi:namedview
     id="namedview8"
     pagecolor="#ffffff"
     bordercolor="#666666"
     borderopacity="1.0"
     inkscape:showpageshadow="2"
     inkscape:pageopacity="0"
     inkscape:pagecheckerboard="true"
     inkscape:deskcolor="#d1d1d1"
     showgrid="false"
     inkscape:zoom="1.0171687"
     inkscape:cx="428.64079"
     inkscape:cy="272.8161"
     inkscape:window-width="3276"
     inkscape:window-height="1321"
     inkscape:window-x="1275"
     inkscape:window-y="1440"
     inkscape:window-maximized="0"
     inkscape:current-layer="svg6"
     showborder="true"
     shape-rendering="auto">
    <sodipodi:guide
       position="40,600"
       orientation="0,1"
       id="guide6"
       inkscape:locked="false"
       inkscape:label=""
       inkscape:color="rgb(0,134,229)" />
    <sodipodi:guide
       position="1240,600"
       orientation="-1,0"
       id="guide7"
       inkscape:locked="false"
       inkscape:label=""
       inkscape:color="rgb(0,134,229)" />
    <sodipodi:guide
       position="1240,40"
       orientation="0,1"
       id="guide8"
       inkscape:locked="false"
       inkscape:label=""
       inkscape:color="rgb(0,134,229)" />
    <sodipodi:guide
       position="40,600"
       orientation="-1,0"
       id="guide9"
       inkscape:locked="false"
       inkscape:label=""
       inkscape:color="rgb(0,134,229)" />
  </sodipodi:namedview>
  <g
     id="g954"
     style="stroke:url(#radialGradient2968)"
     transform="matrix(2.6025332,0,0,2.6025332,-1041.6466,-528.83596)">
    <circle
       style="fill:url(#radialGradient3049);fill-opacity:1;stroke:url(#radialGradient6);stroke-width:13.3838;stroke-dasharray:none;paint-order:stroke fill markers;stop-color:#000000"
       id="path345"
       cx="483.45538"
       cy="330"
       r="57.30809" />
    <g
       id="g5"
       style="stroke:url(#radialGradient5)"
       transform="translate(364.94249,123.11945)">
      <path
         style="fill:#ebf0e9;stroke:url(#radialGradient1);stroke-width:1.30053"
         d="m 106.59598,228.70665 c -4.02409,-4.71891 -4.02876,-4.71886 -8.165847,0.0942 -2.635761,3.06638 -2.312036,2.90039 -3.163647,1.62227 -0.371101,-0.55696 -1.022217,-1.5094 -1.446922,-2.11655 l -0.772193,-1.1039 0.670152,-2.39127 c 2.555737,-9.11949 3.246423,-14.18502 3.440356,-25.23175 0.132779,-7.5634 0.219398,-8.54903 1.000045,-11.3796 0.631217,-2.28875 1.806386,-4.84166 3.199106,-6.94968 l 0.56387,-0.85347 h 1.97095 c 2.71118,0 2.58096,0.40709 2.58096,-1.27294 0,-1.85934 -1.21676,-1.53921 -4.57221,-2.25176 -5.964272,-1.26654 -7.727321,-2.34355 -9.369147,-6.27525 l -0.256809,-0.61498 15.813936,0.0464 15.81395,0.0464 1.05667,0.36103 c 2.45442,0.83859 4.53593,2.62913 5.61436,4.82955 0.94058,1.91915 0.92957,2.06757 -0.19402,2.61607 -2.65682,1.29698 -3.84438,3.23779 -4.42382,7.2298 -0.41619,2.86726 -0.9709,5.16078 -2.3686,9.79328 -1.83901,6.09521 -1.69471,6.298 4.48253,6.29966 l 4.00456,0.001 0.11367,1.09731 c 0.50595,4.88451 2.14906,10.95974 4.80346,17.76031 0.78523,2.01175 1.65963,4.40545 1.94311,5.31932 l 0.51542,1.66159 -1.75874,2.27397 c -2.11852,2.73917 -1.46936,2.83389 -4.42949,-0.64638 -3.97417,-4.67251 -4.02903,-4.67246 -8.02791,0.007 -1.33699,1.56468 -2.48268,2.9027 -2.54598,2.97336 -0.0633,0.0706 -1.2997,-1.25656 -2.74755,-2.94935 -4.02669,-4.70795 -4.02529,-4.70794 -8.03927,-0.024 -1.34089,1.56469 -2.49066,2.90571 -2.55503,2.98006 -0.0644,0.0743 -1.30183,-1.25419 -2.74992,-2.95229 z"
         id="path22"
         sodipodi:nodetypes="cssscsssscsssscccsssssscssscssssssscc" />
      <path
         style="fill:#fadf47;fill-opacity:1;stroke:url(#radialGradient2);stroke-width:1.30053"
         d="m 128.59638,194.36383 0.66777,-2.2896 7.47954,0.0724 c 10.50338,0.10165 10.80273,0.1974 8.20706,2.62535 -1.86,1.73981 -2.66137,1.88146 -10.64459,1.88146 h -6.37753 z m 22.53591,-4.72897 c -3.58559,-1.82047 -5.35501,-2.08511 -13.94099,-2.08511 h -6.90808 l 0.0916,-0.45796 c 0.0504,-0.25188 0.17779,-1.11144 0.28314,-1.91015 0.27448,-2.08097 0.84589,-2.92975 2.23137,-3.31454 0.7936,-0.2204 12.70244,-0.22548 13.86024,-0.006 3.47069,0.6582 5.8379,3.77714 5.65042,7.44476 l -0.0485,0.94794 z"
         id="path21" />
      <path
         style="fill:#3e44e5;fill-opacity:1;stroke:url(#radialGradient3);stroke-width:1.30053"
         d="m 85.943423,243.43137 c 0,-0.0225 0.440085,-0.88211 0.977967,-1.91015 1.185702,-2.2662 2.839676,-5.77677 3.580476,-7.59959 0.669786,-1.6481 0.447974,-1.73074 2.199669,0.81966 2.772413,4.03656 3.268974,3.99208 7.24055,-0.64851 1.362305,-1.59176 2.522535,-2.91357 2.578295,-2.93733 0.0558,-0.0238 1.25979,1.31909 2.67562,2.9841 3.98442,4.6857 4.02944,4.68528 8.08472,-0.0738 1.37143,-1.60945 2.53466,-2.93125 2.58496,-2.93732 0.0503,-0.006 1.25734,1.35359 2.68233,3.02149 3.9914,4.67178 4.08578,4.67158 8.03685,-0.0175 3.02338,-3.58815 2.22483,-3.59728 5.35394,0.0613 3.854,4.50603 4.24984,4.54652 7.18836,0.73534 1.60476,-2.08132 1.68733,-2.16087 1.80271,-1.73651 0.3288,1.2094 1.09873,8.08774 1.09873,9.81587 v 0.46409 h -28.04259 c -15.423421,0 -28.042587,-0.0185 -28.042587,-0.041 z"
         id="path20" />
      <path
         style="fill:#010101;stroke:url(#radialGradient4);stroke-width:1.30053"
         d="m 80.76107,247.76514 c -0.530965,-0.37147 -1.556797,-1.86256 0.403444,-5.21979 7.840769,-13.42862 11.441213,-27.18443 11.443444,-43.7207 0.0012,-8.4203 0.701386,-12.11791 3.233956,-17.07661 l 0.928946,-1.81884 -1.196996,-0.43657 c -6.177344,-2.25301 -10.767901,-13.99752 -6.089719,-14.08424 1.302077,-0.0241 35.009305,0 36.140505,0 5.2449,0 8.78004,5.616 10.03787,10.46173 l 0.30997,1.19414 5.83232,0.091 c 5.50247,0.0859 5.89667,0.11209 6.97027,0.4631 3.80373,1.24358 6.50234,3.94307 7.73417,7.7367 0.52477,1.61611 0.67637,9.72616 0.19883,10.6365 -0.93413,1.78073 -2.36421,1.70909 -4.6004,-0.23046 -1.4696,-1.27465 -1.31632,-1.26495 -1.9561,-0.12376 -1.9871,3.54451 -5.51586,5.36929 -10.68338,5.52457 -2.14314,0.0644 -2.80426,0.13388 -2.80426,0.29471 0,2.69968 2.19388,10.86987 4.47237,16.65544 3.58473,9.10239 5.25736,17.08641 5.33537,25.46748 0.0299,3.21116 -0.75128,4.28833 -1.11774,4.42853 -0.10769,0.0412 -0.10054,0.0564 -0.10054,0.0564 H 81.543082 c 0,0 -0.553296,-0.13943 -0.782012,-0.29945 z m 61.26753,-4.75687 c 0,-1.72813 -0.76993,-8.60647 -1.09873,-9.81587 -0.11537,-0.42436 -0.19795,-0.34481 -1.80271,1.73651 -2.93852,3.81119 -3.33436,3.77069 -7.18836,-0.73533 -3.12911,-3.65851 -2.33056,-3.64937 -5.35394,-0.0613 -3.95107,4.68914 -4.04545,4.68934 -8.03685,0.0175 -1.42499,-1.66789 -2.63204,-3.02757 -2.68233,-3.02149 -0.0503,0.006 -1.21353,1.32787 -2.58496,2.93733 -4.05528,4.75909 -4.1003,4.7595 -8.08472,0.0738 -1.41583,-1.66501 -2.61985,-3.00786 -2.67562,-2.9841 -0.0558,0.0238 -1.21599,1.34557 -2.578295,2.93734 -3.971576,4.64058 -4.468137,4.68506 -7.24055,0.64851 -1.751695,-2.55041 -1.529883,-2.46776 -2.199669,-0.81967 -0.7408,1.82282 -2.394774,5.3334 -3.580476,7.59959 -0.537882,1.02804 -0.977967,1.88761 -0.977967,1.91015 0,0.0225 12.619166,0.041 28.042587,0.041 h 28.04259 z m -30.15085,-14.24128 c 4.01115,-4.69427 4.02091,-4.69423 8.071,0.0382 1.3562,1.58467 2.51986,2.90347 2.5859,2.93065 0.0661,0.0272 1.27173,-1.30493 2.67932,-2.96025 4.00565,-4.71067 3.99604,-4.71075 8.10487,0.0669 l 2.51569,2.92517 1.79651,-2.30164 c 0.98808,-1.2659 1.79651,-2.42112 1.79651,-2.56716 0,-0.42328 -1.33239,-4.25408 -2.43414,-6.99847 -2.47038,-6.15358 -3.88757,-11.45284 -4.79316,-17.92288 l -0.10808,-0.77218 h -3.81556 c -6.35336,0 -6.46087,-0.15417 -4.55201,-6.52748 1.39102,-4.64435 1.9297,-6.88863 2.36863,-9.86829 0.56527,-3.83734 1.67723,-5.59372 4.34853,-6.86861 0.90624,-0.43251 1.02097,-0.53762 0.92529,-0.84775 -1.01665,-3.2949 -3.02314,-5.44306 -6.23111,-6.67109 -0.90259,-0.34551 -1.0085,-0.34798 -16.89278,-0.39314 l -15.984499,-0.0455 0.112093,0.37036 c 1.146054,3.78665 4.245173,5.49101 9.985326,5.49145 4.32131,3.2e-4 4.66216,1.91816 4.66216,3.83577 0,1.69028 -0.48407,0.7152 -3.22717,0.71556 l -1.90409,2.5e-4 -0.66736,0.98274 c -1.541785,2.27037 -2.9001,5.54137 -3.590327,8.64596 -0.295319,1.32832 -0.351319,2.35538 -0.47218,8.65995 -0.223525,11.65989 -1.536747,20.81974 -3.970431,27.69413 -0.137899,0.38952 -0.202596,0.79187 -0.143772,0.89411 1.157078,2.01118 3.046878,4.33472 3.303723,4.06198 0.155201,-0.1648 1.320173,-1.52322 2.588828,-3.01871 3.552929,-4.1882 3.653479,-4.18294 7.571259,0.39571 3.11458,3.63997 2.31404,3.63188 5.37103,0.0543 z m 7.59927,-43.2911 c -2.27929,-0.74545 -2.24251,-6.26592 -0.6172,-7.45818 1.82842,-1.34126 3.59215,0.19743 3.59215,3.17775 0,2.88643 -0.8853,4.96385 -2.97495,4.28043 z m 23.36441,10.73164 c 1.7747,-0.72371 4.16208,-3.12471 3.48421,-3.50407 -0.83443,-0.46696 -2.89627,-0.59064 -9.93931,-0.5962 l -7.18665,-0.006 -0.34454,1.1786 c -0.1895,0.64823 -0.48522,1.64353 -0.65715,2.21176 -0.17193,0.56824 -0.31261,1.06497 -0.31261,1.10384 0,0.31614 14.1281,-0.0506 14.95605,-0.38826 z m 9.59138,-7.25885 c 0,-3.16205 -1.6184,-5.69013 -4.3483,-6.79244 -1.43385,-0.57897 -14.60063,-0.67975 -15.7557,-0.12059 -1.20166,0.58171 -2.00494,2.65501 -2.00494,5.17482 0,0.30343 0.22551,0.3153 7.27482,0.38301 8.54549,0.0821 11.34729,0.55749 14.10257,2.39287 0.71423,0.47577 0.73155,0.4512 0.73155,-1.03767 z"
         id="path19"
         sodipodi:nodetypes="sssscsssscsssssssssssscssssssscssssssssscsssssscsssscssssssscsssscsssscssssssssssscsssssssssss" />
    </g>
  </g>
  <text
     xml:space="preserve"
     transform="matrix(4.5017347,0,0,4.5017347,-231.56443,64.936311)"
     id="text287"
     style="font-style:normal;font-variant:normal;font-weight:normal;font-stretch:normal;font-size:56px;line-height:125%;font-family:MaxTF-SemiBold;-inkscape-font-specification:MaxTF-SemiBold;letter-spacing:0px;word-spacing:0px;white-space:pre;shape-inside:url(#rect289);shape-padding:0.250766;display:inline;opacity:1;fill:#000000;fill-opacity:1;stroke:#ffffff;stroke-width:0.578118;stroke-linecap:round;stroke-linejoin:bevel;stroke-dasharray:none;stroke-dashoffset:0;stroke-opacity:1;paint-order:normal"><tspan
       x="145.64453"
       y="79.572343"
       id="tspan2">Raptor</tspan></text>
</svg>
